<?xml version="1.0" standalone="no"?>
<!DOCTYPE svg PUBLIC "-//W3C//DTD SVG 20010904//EN"
 "http://www.w3.org/TR/2001/REC-SVG-20010904/DTD/svg10.dtd">
<svg version="1.0" xmlns="http://www.w3.org/2000/svg"
 width="2000.000000pt" height="2000.000000pt" viewBox="0 0 2000.000000 2000.000000"
 preserveAspectRatio="xMidYMid meet">
<metadata>
Created by potrace 1.11, written by Peter Selinger 2001-2013
</metadata>
<g transform="translate(0.000000,2000.000000) scale(0.100000,-0.100000)"
fill="#000000" stroke="none">
<path d="M7555 19492 c-394 -162 -959 -431 -1340 -637 -1213 -659 -2391 -1512
-3485 -2524 -311 -289 -919 -914 -956 -984 -16 -29 -121 -450 -178 -707 -163
-740 -303 -1669 -376 -2485 -11 -126 -23 -260 -26 -297 l-6 -68 -192 0 c-233
0 -273 -9 -340 -76 -90 -89 -134 -223 -143 -429 -4 -107 -1 -147 15 -226 35
-168 104 -282 196 -325 48 -22 63 -24 228 -24 207 0 183 -20 193 160 4 63 15
231 25 373 17 228 22 264 43 310 47 102 133 155 265 164 299 20 862 -304 1542
-886 l135 -116 -1007 -3 -1007 -2 -6 -53 c-4 -28 -5 -352 -3 -720 l3 -667
-166 0 c-254 0 -313 -28 -389 -183 -56 -117 -74 -216 -67 -386 9 -248 85 -423
209 -485 51 -25 56 -26 260 -26 l207 0 5 -33 c3 -17 10 -95 16 -172 68 -853
222 -1876 406 -2700 56 -251 143 -593 158 -622 37 -72 730 -772 1065 -1077
1469 -1334 3108 -2406 4711 -3077 91 -38 173 -74 182 -79 12 -7 792 -10 2251
-10 1908 0 2238 2 2263 14 16 8 85 38 154 66 1409 585 2940 1546 4260 2674
516 441 1072 973 1422 1359 l116 128 45 172 c164 615 322 1465 427 2294 32
260 85 768 95 923 10 156 -20 138 238 142 255 3 265 6 350 97 95 102 140 245
139 446 0 245 -86 431 -230 502 -55 27 -63 28 -242 31 l-185 3 3 627 c2 345 1
669 -3 720 l-7 92 -1006 0 -1007 1 50 46 c162 150 508 422 730 575 236 162
472 288 655 349 83 28 109 32 205 33 95 1 117 -3 162 -23 67 -30 125 -93 147
-158 12 -36 25 -163 44 -435 l27 -383 195 0 c194 0 195 0 241 27 95 56 165
166 195 309 25 116 15 339 -19 444 -43 132 -105 218 -192 263 -49 26 -55 27
-262 30 -117 2 -213 7 -213 10 0 36 -55 611 -75 789 -98 881 -254 1775 -435
2493 -67 267 -68 270 -157 367 -807 893 -1900 1832 -3008 2585 -877 596 -1876
1135 -2763 1489 l-122 49 -2238 0 -2237 -1 -190 -77z m2650 -3162 c1223 -80
2082 -685 2510 -1768 119 -303 224 -761 229 -996 l1 -70 -885 -162 c-487 -89
-886 -161 -888 -159 -1 1 -11 60 -21 131 -78 526 -287 976 -543 1169 -261 196
-693 242 -994 105 -536 -243 -767 -1143 -500 -1945 86 -255 184 -451 361 -715
261 -389 525 -665 1085 -1135 628 -525 917 -796 1226 -1150 523 -600 887
-1220 1097 -1870 129 -396 163 -630 154 -1048 -11 -501 -89 -896 -258 -1309
-238 -577 -616 -1043 -1069 -1316 -489 -295 -1048 -426 -1749 -409 -350 8
-633 50 -906 132 -1130 342 -1896 1364 -2119 2825 -29 190 -62 527 -53 536 4
5 1674 131 1763 134 6 0 16 -42 23 -102 30 -249 102 -573 173 -777 51 -148
160 -374 228 -477 179 -267 375 -428 620 -510 82 -27 93 -28 275 -28 175 0
198 2 290 27 207 56 418 189 561 355 245 285 335 549 337 992 1 135 -4 215
-17 295 -66 402 -267 794 -605 1184 -31 36 -470 457 -976 936 -1030 975 -1268
1217 -1582 1610 -216 270 -400 547 -509 764 -186 374 -300 753 -361 1201 -26
194 -26 792 0 995 84 650 281 1141 633 1580 147 184 384 402 579 532 507 339
1152 491 1890 443z m-7080 -7096 c-573 -505 -1101 -851 -1447 -951 -76 -21
-104 -25 -191 -21 -90 3 -108 7 -157 33 -60 33 -113 95 -130 153 -11 38 -59
646 -60 760 l0 62 1013 0 1012 -1 -40 -35z m15701 -86 c-16 -282 -46 -652 -56
-688 -19 -70 -69 -132 -134 -165 -57 -28 -66 -30 -180 -30 -107 0 -131 3 -206
29 -336 113 -793 413 -1312 859 -71 60 -128 111 -128 113 0 2 455 4 1011 4
l1012 0 -7 -122z"/>
</g>
</svg>
